<svg version="1" xmlns="http://www.w3.org/2000/svg" width="1365.333" height="1365.333" viewBox="0 0 1024.000000 1024.000000"><path d="M0 512v512h1024V0H0v512zm524.2-257.5c72 8.4 119.7 47.8 130.5 107.9 2.3 13.1 2.1 37.7-.5 52.6-6 33.8-25.5 66.5-55 92.4-5.5 4.8-13.6 11.5-17.9 14.9-10.3 7.9-39.6 27.3-55.5 36.7l-12.8 7.5V646h-64V538.5l26.2-15c38.6-22.2 50.3-30 66.3-44.5 17-15.4 30.9-33.6 36.4-47.8 7.9-20.7 8.4-52.6 1.1-71.3-12.8-32.4-54.1-50.3-106-46-33.4 2.8-59.5 10.4-93.7 27.2-8.9 4.3-16.8 7.9-17.7 7.9-1.4 0-1.6-3.8-1.6-35.9v-36l12.6-4.1c25-8.1 65.4-16.6 90.4-18.9 15.8-1.4 47.4-1.2 61.2.4zM518 749v37h-72v-74h72v37z"/></svg>